<svg width="16" height="19" viewBox="0 0 16 19" fill="none" xmlns="http://www.w3.org/2000/svg">
<path d="M14.7058 9.04155C15.2351 9.19909 15.5365 9.75591 15.379 10.2852C14.4875 13.2804 11.8895 15.5417 8.71047 15.9381V17H10.2105C10.7628 17 11.2105 17.4477 11.2105 18C11.2105 18.5523 10.7628 19 10.2105 19H5.21047C4.65818 19 4.21047 18.5523 4.21047 18C4.21047 17.4477 4.65818 17 5.21047 17H6.71047V15.9381C3.53138 15.5418 0.933237 13.2805 0.0418092 10.2852C-0.11573 9.75591 0.185674 9.19909 0.715013 9.04155C1.24435 8.88401 1.80118 9.18541 1.95872 9.71475C2.69654 12.1939 4.99384 14 7.71038 14C10.4269 14 12.7242 12.1939 13.4621 9.71475C13.6196 9.18541 14.1764 8.88401 14.7058 9.04155Z" fill="#0D0D0D"/>
<path fill-rule="evenodd" clip-rule="evenodd" d="M10.2104 8V4.5C10.2104 3.11929 9.09116 2 7.71045 2C6.32974 2 5.21045 3.11929 5.21045 4.5V8C5.21045 9.38071 6.32974 10.5 7.71045 10.5C9.09116 10.5 10.2104 9.38071 10.2104 8ZM7.71045 0C5.22517 0 3.21045 2.01472 3.21045 4.5V8C3.21045 10.4853 5.22517 12.5 7.71045 12.5C10.1957 12.5 12.2104 10.4853 12.2104 8V4.5C12.2104 2.01472 10.1957 0 7.71045 0Z" fill="#0D0D0D"/>
</svg>
