<svg width="18" height="19" viewBox="0 0 18 19" fill="none" xmlns="http://www.w3.org/2000/svg">
<path d="M0.292734 0.792969C0.658857 0.426965 1.23789 0.404293 1.63063 0.724609L1.7068 0.792969L17.7068 16.793L17.7752 16.8691C18.0954 17.2619 18.0728 17.8409 17.7068 18.207C17.3407 18.5731 16.7617 18.5956 16.3689 18.2754L16.2927 18.207L12.9548 14.8691C12.0747 15.4174 11.0739 15.7901 9.99977 15.9336V17H11.4998C12.0519 17.0001 12.4998 17.4478 12.4998 18C12.4998 18.5522 12.0519 18.9999 11.4998 19H6.49977C5.94748 19 5.49977 18.5523 5.49977 18C5.49977 17.4477 5.94748 17 6.49977 17H7.99977V15.9336C4.90425 15.5213 2.40765 13.2211 1.70094 10.2295C1.57417 9.6921 1.90671 9.15331 2.4441 9.02637C2.98139 8.8998 3.52031 9.23322 3.64723 9.77051C4.22038 12.1958 6.40058 13.9999 8.99977 14C9.89577 13.9999 10.7407 13.7832 11.488 13.4023L10.3484 12.2627C9.92682 12.4143 9.47353 12.5 8.99977 12.5C6.79073 12.4999 4.99977 10.7091 4.99977 8.5V6.91406L0.292734 2.20703L0.224375 2.13086C-0.0959754 1.73809 -0.0733816 1.15908 0.292734 0.792969Z" fill="#FF0000"/>
<path d="M14.3523 9.77051C14.4793 9.23323 15.0181 8.89973 15.5554 9.02637C16.0925 9.15345 16.4261 9.6923 16.2996 10.2295C16.1586 10.8264 15.9438 11.3954 15.6697 11.9277L14.157 10.415C14.2347 10.2059 14.3003 9.99077 14.3523 9.77051Z" fill="#FF0000"/>
<path d="M8.99977 0C11.2087 0.000206889 12.9998 1.79099 12.9998 4V8.5C12.9998 8.73756 12.978 8.97011 12.9382 9.19629L5.61305 1.87109C6.32111 0.747114 7.57324 7.89196e-05 8.99977 0Z" fill="#FF0000"/>
</svg>
